<svg width="24" height="24" viewBox="0 0 24 24" fill="none" xmlns="http://www.w3.org/2000/svg">
<path d="M19.0847 2.81579H17.2479V2.15972C17.2479 1.76605 16.9855 1.50366 16.5919 1.50366C16.1982 1.50366 15.9358 1.76605 15.9358 2.15972V2.81579H8.06362V2.15972C8.06362 1.76605 7.80123 1.50366 7.40756 1.50366C7.01389 1.50366 6.75149 1.76605 6.75149 2.15972V2.81579H4.91474C3.01228 2.81579 1.50351 4.39013 1.50351 6.22702V19.0192C1.50351 20.9217 3.07785 22.4304 4.91474 22.4304H19.019C20.9214 22.4304 22.4302 20.8561 22.4302 19.0192V6.22702C22.4959 4.39008 20.9216 2.81579 19.0847 2.81579ZM4.91484 4.12772H6.75159V5.04619C5.96442 5.30859 5.43965 6.03019 5.43965 6.88294C5.43965 7.99805 6.29235 8.85094 7.40765 8.85094C8.52276 8.85094 9.37565 7.99824 9.37565 6.88294C9.37565 6.03024 8.85088 5.3086 8.06371 5.04619V4.12772H15.9359V5.04619C15.1487 5.30859 14.624 6.03019 14.624 6.88294C14.624 7.99805 15.4767 8.85094 16.592 8.85094C17.7071 8.85094 18.56 7.99824 18.56 6.88294C18.56 6.03024 18.0352 5.3086 17.248 5.04619L17.2478 4.12772H19.0846C20.2654 4.12772 21.1837 5.11172 21.1837 6.22683V9.37571H2.81573V6.22683C2.81592 5.11172 3.79992 4.12772 4.91503 4.12772H4.91484ZM7.40765 6.22683C7.80133 6.22683 8.06371 6.48923 8.06371 6.8829C8.06371 7.27657 7.80132 7.53896 7.40765 7.53896C7.01398 7.53896 6.75159 7.27657 6.75159 6.8829C6.75159 6.48922 7.01416 6.22683 7.40765 6.22683ZM16.5919 6.22683C16.9855 6.22683 17.2479 6.48923 17.2479 6.8829C17.2479 7.27657 16.9855 7.53896 16.5919 7.53896C16.1982 7.53896 15.9358 7.27657 15.9358 6.8829C15.9358 6.48922 16.1984 6.22683 16.5919 6.22683ZM19.0847 21.1837H4.98046C3.79963 21.1837 2.88135 20.1997 2.88135 19.0846V10.6874H21.2493V19.0841C21.1838 20.1994 20.1997 21.1834 19.0844 21.1834L19.0847 21.1837Z" fill="black"/>
<path d="M10.4255 12.6558H9.7694C9.37573 12.6558 9.11334 12.9182 9.11334 13.3118C9.11334 13.7055 9.37573 13.9679 9.7694 13.9679H10.4255C10.8191 13.9679 11.0815 13.7055 11.0815 13.3118C11.0815 12.9181 10.7536 12.6558 10.4255 12.6558Z" fill="black"/>
<path d="M14.2303 12.6558H13.5742C13.1806 12.6558 12.9182 12.9182 12.9182 13.3118C12.9182 13.7055 13.1806 13.9679 13.5742 13.9679H14.2303C14.624 13.9679 14.8864 13.7055 14.8864 13.3118C14.8862 12.9181 14.5582 12.6558 14.2303 12.6558Z" fill="black"/>
<path d="M6.62063 12.6558H5.96456C5.57089 12.6558 5.3085 12.9182 5.3085 13.3118C5.3085 13.7055 5.57089 13.9679 5.96456 13.9679H6.62063C7.0143 13.9679 7.27669 13.7055 7.27669 13.3118C7.27669 12.9181 6.94856 12.6558 6.62063 12.6558Z" fill="black"/>
<path d="M18.0351 12.6558H17.3791C16.9854 12.6558 16.723 12.9182 16.723 13.3118C16.723 13.7055 16.9854 13.9679 17.3791 13.9679H18.0351C18.4288 13.9679 18.6912 13.7055 18.6912 13.3118C18.6912 12.9181 18.3631 12.6558 18.0351 12.6558Z" fill="black"/>
<path d="M6.62063 15.2798H5.96456C5.57089 15.2798 5.3085 15.5422 5.3085 15.9359C5.3085 16.3296 5.57089 16.592 5.96456 16.592H6.62063C7.0143 16.592 7.27669 16.3296 7.27669 15.9359C7.27669 15.5422 6.94856 15.2798 6.62063 15.2798Z" fill="black"/>
<path d="M10.4255 15.2798H9.7694C9.37573 15.2798 9.11334 15.5422 9.11334 15.9359C9.11334 16.3296 9.37573 16.592 9.7694 16.592H10.4255C10.8191 16.592 11.0815 16.3296 11.0815 15.9359C11.0815 15.5422 10.7536 15.2798 10.4255 15.2798Z" fill="black"/>
<path d="M18.0351 15.2798H17.3791C16.9854 15.2798 16.723 15.5422 16.723 15.9359C16.723 16.3296 16.9854 16.592 17.3791 16.592H18.0351C18.4288 16.592 18.6912 16.3296 18.6912 15.9359C18.6912 15.5422 18.3631 15.2798 18.0351 15.2798Z" fill="black"/>
<path d="M14.2303 15.2798H13.5742C13.1806 15.2798 12.9182 15.5422 12.9182 15.9359C12.9182 16.3296 13.1806 16.592 13.5742 16.592H14.2303C14.624 16.592 14.8864 16.3296 14.8864 15.9359C14.8862 15.5422 14.5582 15.2798 14.2303 15.2798Z" fill="black"/>
<path d="M14.2303 17.9039H13.5742C13.1806 17.9039 12.9182 18.1663 12.9182 18.56C12.9182 18.9537 13.1806 19.2161 13.5742 19.2161H14.2303C14.624 19.2161 14.8864 18.9537 14.8864 18.56C14.8862 18.1663 14.5582 17.9039 14.2303 17.9039Z" fill="black"/>
<path d="M18.0351 17.9039H17.3791C16.9854 17.9039 16.723 18.1663 16.723 18.56C16.723 18.9537 16.9854 19.2161 17.3791 19.2161H18.0351C18.4288 19.2161 18.6912 18.9537 18.6912 18.56C18.6912 18.1663 18.3631 17.9039 18.0351 17.9039Z" fill="black"/>
<path d="M10.4255 17.9039H9.7694C9.37573 17.9039 9.11334 18.1663 9.11334 18.56C9.11334 18.9537 9.37573 19.2161 9.7694 19.2161H10.4255C10.8191 19.2161 11.0815 18.9537 11.0815 18.56C11.0815 18.1663 10.7536 17.9039 10.4255 17.9039Z" fill="black"/>
<path d="M6.62063 17.9039H5.96456C5.57089 17.9039 5.3085 18.1663 5.3085 18.56C5.3085 18.9537 5.57089 19.2161 5.96456 19.2161H6.62063C7.0143 19.2161 7.27669 18.9537 7.27669 18.56C7.27669 18.1663 6.94856 17.9039 6.62063 17.9039Z" fill="black"/>
</svg>
